<svg xmlns="http://www.w3.org/2000/svg" data-name="Layer 1" viewBox="0 0 95 118.75" x="0px" y="0px">
													<defs>
														<style>
															.cls-1 {
																fill-rule: evenodd;
																stroke-width: 0px;
															}
														</style>
													</defs>
													<path class="cls-1" d="m73.98,59.61l-.6-3.07h-4.72l-.6,3.07c-.08.42-.4.73-.79.82-.49.14-.96.31-1.43.5-.49.2-.97.43-1.41.68-.36.2-.79.17-1.11-.06l-2.59-1.74-3.34,3.34,1.75,2.61c.23.35.23.78.03,1.12-.25.44-.47.91-.67,1.39-.2.48-.37.97-.51,1.47-.11.4-.43.67-.81.75h0s-3.07.61-3.07.61v4.72l3.07.6c.42.08.73.4.82.79.14.49.31.96.5,1.43.2.49.43.97.68,1.41.2.36.17.79-.05,1.11l-1.74,2.59,3.34,3.34,2.61-1.75c.35-.23.78-.23,1.12-.03.44.25.91.47,1.39.67.48.2.97.37,1.47.51.4.11.67.43.75.81h0s.6,3.07.6,3.07h4.72l.6-3.07c.08-.42.4-.73.79-.82.49-.14.96-.31,1.43-.5.49-.2.97-.43,1.41-.68.36-.2.79-.17,1.11.06l2.59,1.74,3.34-3.34-1.75-2.61c-.23-.35-.23-.78-.03-1.11.25-.44.47-.91.67-1.39.2-.48.37-.97.51-1.47.11-.4.43-.68.81-.75h0s3.07-.61,3.07-.61v-4.72l-3.07-.6c-.42-.08-.73-.4-.82-.79-.14-.49-.31-.96-.5-1.43-.2-.49-.43-.97-.68-1.41-.2-.36-.17-.79.06-1.11l1.74-2.59-3.34-3.34-2.61,1.75c-.35.23-.78.23-1.12.03-.44-.25-.91-.47-1.39-.67-.48-.2-.97-.37-1.47-.51-.4-.11-.67-.43-.75-.81h0ZM11.73,20c-.58,0-1.05-.47-1.05-1.05s.47-1.05,1.05-1.05h10.28c.58,0,1.05.47,1.05,1.05s-.47,1.05-1.05,1.05h-10.28Zm53.55,0c-.58,0-1.05-.47-1.05-1.05s.47-1.05,1.05-1.05h0c.58,0,1.05.47,1.05,1.05s-.47,1.05-1.05,1.05h0Zm-4.87,0c-.58,0-1.05-.47-1.05-1.05s.47-1.05,1.05-1.05h0c.58,0,1.05.47,1.05,1.05s-.47,1.05-1.05,1.05h0Zm-4.87,0c-.58,0-1.05-.47-1.05-1.05s.47-1.05,1.05-1.05h0c.58,0,1.05.47,1.05,1.05s-.47,1.05-1.05,1.05h0Zm-17.04-12.58c-.58,0-1.05-.47-1.05-1.05s.47-1.05,1.05-1.05h0c.58,0,1.05.47,1.05,1.05s-.47,1.05-1.05,1.05h0Zm10.64-2.8l-1.59,4.88c-.14.45-.56.73-1,.73h0s-16.11,0-16.11,0c-.49,0-.91-.34-1.02-.79l-1.56-4.82h-14.38c-.19,0-.37.08-.5.21-.13.13-.21.3-.21.5v8.01h51.44V5.31c0-.19-.08-.37-.21-.5s-.3-.21-.5-.21h-14.38Zm-19.07,0l1.14,3.5h14.58l1.14-3.5h-16.86Zm45.11,64.9c.41-.41,1.08-.41,1.49,0,.41.41.41,1.08,0,1.49l-6.41,6.41c-.41.41-1.08.41-1.49,0l-2.94-2.94c-.41-.41-.41-1.08,0-1.49s1.08-.41,1.49,0l2.2,2.2,5.67-5.67h0Zm-4.18-6.97c3.02,0,5.75,1.22,7.73,3.2,1.98,1.98,3.2,4.71,3.2,7.73s-1.22,5.75-3.2,7.73c-1.98,1.98-4.71,3.2-7.73,3.2s-5.75-1.22-7.73-3.2c-1.98-1.98-3.2-4.71-3.2-7.73s1.22-5.75,3.2-7.73c1.98-1.98,4.71-3.2,7.73-3.2h0Zm6.23,4.69c1.6,1.6,2.58,3.8,2.58,6.23s-.99,4.64-2.58,6.23c-1.6,1.6-3.8,2.58-6.23,2.58s-4.64-.99-6.23-2.58-2.58-3.8-2.58-6.23.99-4.64,2.58-6.23,3.8-2.58,6.23-2.58,4.64.99,6.23,2.58h0ZM10.68,13.32V5.31c0-.78.32-1.48.82-1.99.51-.51,1.21-.82,1.99-.82h50.04c.78,0,1.48.32,1.99.82s.82,1.21.82,1.99v8.01h2.92c.77,0,1.48.32,1.99.82.51.51.82,1.21.82,1.99v38.29h1.7c.39,0,.75.14,1.03.37.29.23.49.56.56.94l.56,2.84c.37.12.73.26,1.08.4.36.15.71.31,1.05.49l2.41-1.62c.32-.22.7-.3,1.06-.27.37.04.72.19,1,.47l3.89,3.89c.27.27.43.63.47,1,.04.36-.05.74-.27,1.06l-1.62,2.41c.18.35.34.7.49,1.05.15.35.28.71.4,1.08l2.84.56c.38.08.71.28.94.57.24.29.37.65.37,1.03v5.5c0,.39-.14.75-.37,1.03-.23.29-.56.49-.94.57l-2.84.56c-.12.37-.26.73-.4,1.08-.15.36-.31.71-.49,1.05l1.62,2.41c.22.32.3.7.27,1.06-.04.37-.19.72-.47,1l-3.89,3.89c-.27.27-.63.43-1,.47-.36.04-.74-.05-1.06-.27l-2.41-1.62c-.35.18-.7.34-1.05.49-.35.15-.71.28-1.08.4l-.56,2.84c-.07.38-.28.71-.56.94-.29.24-.65.37-1.03.37h-5.5c-.39,0-.75-.14-1.03-.37-.29-.23-.49-.56-.57-.94l-.56-2.84c-.37-.12-.73-.26-1.08-.4-.35-.15-.71-.31-1.05-.49l-2.41,1.62c-.32.22-.7.3-1.06.27-.32-.03-.64-.16-.9-.38-.04-.03-.07-.06-.1-.09l-2.87-2.87H13.49c-.77,0-1.48-.32-1.99-.82-.51-.51-.82-1.21-.82-1.99v-19.18h-2.92c-.77,0-1.48-.32-1.99-.82-.51-.51-.82-1.21-.82-1.99V16.13c0-.78.32-1.48.82-1.99s1.21-.82,1.99-.82h2.92Zm59.28,41.1h-1.7c-.39,0-.75.14-1.03.37-.29.23-.49.56-.57.94l-.56,2.84c-.37.12-.73.26-1.08.4-.36.15-.71.31-1.05.49l-2.41-1.62c-.32-.22-.7-.3-1.06-.27-.37.04-.72.19-1,.47h0s-3.84,3.84-3.84,3.84H7.76c-.19,0-.37-.08-.5-.21-.13-.13-.21-.3-.21-.5V24.56h62.9v29.86h0Zm-14.55,9.58h0s1.62,2.41,1.62,2.41c-.18.35-.34.7-.49,1.05-.15.35-.28.71-.4,1.08l-2.84.56c-.38.08-.71.28-.94.57-.24.29-.37.65-.37,1.03v.68H12.79v-7.39h42.62Zm-3.43,9.5v2.71c0,.39.14.75.37,1.03.23.29.56.49.94.57l2.84.56c.12.37.26.73.4,1.08.15.36.31.71.49,1.06l-1.62,2.41c-.2.3-.29.63-.28.97H13.49c-.19,0-.37-.08-.5-.21s-.21-.3-.21-.5v-9.69h39.19Zm-13.47-47.4c4.73,0,9.01,1.92,12.11,5.02s5.02,7.38,5.02,12.11-1.92,9.01-5.02,12.11c-3.1,3.1-7.38,5.02-12.11,5.02s-9.01-1.92-12.11-5.02c-3.1-3.1-5.02-7.38-5.02-12.11s1.92-9.01,5.02-12.11,7.38-5.02,12.11-5.02h0Zm10.62,6.51c-2.72-2.72-6.47-4.4-10.62-4.4s-7.9,1.68-10.62,4.4c-2.72,2.72-4.4,6.47-4.4,10.62s1.68,7.9,4.4,10.62c2.72,2.72,6.47,4.4,10.62,4.4s7.9-1.68,10.62-4.4c2.72-2.72,4.4-6.47,4.4-10.62s-1.68-7.9-4.4-10.62h0Zm-9.99,4.18l-3.31,12.35c-.15.56.18,1.14.75,1.29.56.15,1.14-.18,1.29-.75l3.31-12.35c.15-.56-.18-1.14-.75-1.29-.56-.15-1.14.18-1.29.75h0Zm-6.56.06l-7.14,5.56c-.46.36-.54,1.02-.18,1.47.06.07.13.14.2.19l7.12,5.55c.46.36,1.12.28,1.48-.18.36-.46.28-1.12-.18-1.47l-6.08-4.73,6.08-4.73c.46-.36.54-1.02.18-1.47-.36-.46-1.02-.54-1.48-.18h0Zm10.55,1.66l6.08,4.73-6.08,4.73c-.46.36-.54,1.02-.18,1.47.36.46,1.02.54,1.47.18l7.12-5.55c.07-.05.14-.12.2-.19.36-.46.28-1.12-.18-1.47l-7.14-5.56c-.46-.36-1.12-.28-1.47.18-.36.46-.28,1.12.18,1.47h0Zm-15.61,41.25h4.52c.58,0,1.05-.47,1.05-1.05s-.47-1.05-1.05-1.05h-4.52c-.58,0-1.05.47-1.05,1.05s.47,1.05,1.05,1.05h0Zm17.44,0h4.52c.58,0,1.05-.47,1.05-1.05s-.47-1.05-1.05-1.05h-4.52c-.58,0-1.05.47-1.05,1.05s.47,1.05,1.05,1.05h0Zm-6.46-4.13c-.85,0-1.62.34-2.17.9-.56.56-.9,1.33-.9,2.17s.34,1.62.9,2.17c.56.56,1.33.9,2.17.9s1.62-.34,2.17-.9c.56-.56.9-1.33.9-2.17s-.34-1.62-.9-2.17c-.56-.56-1.33-.9-2.17-.9h0Zm.68,2.39c-.17-.17-.42-.28-.68-.28s-.51.11-.68.28-.28.42-.28.68.11.51.28.68c.17.17.42.28.68.28s.51-.11.68-.28c.17-.17.28-.42.28-.68s-.11-.51-.28-.68h0Zm30.77-55.56v-6.32c0-.19-.08-.37-.21-.5-.13-.13-.3-.21-.5-.21H7.76c-.19,0-.37.08-.5.21-.13.13-.21.3-.21.5v6.32h62.9Z"></path>
												</svg>