<svg xmlns="http://www.w3.org/2000/svg" version="1.1" viewBox="-5.0 -10.0 110.0 135.0" class="">
													<path d="m50 3.125c-25.848 0-46.875 21.027-46.875 46.875s21.027 46.875 46.875 46.875 46.875-21.027 46.875-46.875-21.027-46.875-46.875-46.875zm0 90.625c-24.125 0-43.75-19.625-43.75-43.75s19.625-43.75 43.75-43.75 43.75 19.625 43.75 43.75-19.625 43.75-43.75 43.75zm1.5625-73.438h-3.125v-9.375h3.125zm24.953 0.96094 2.2109 2.2109-6.6289 6.6289-2.2109-2.2109zm12.547 27.164v3.125h-9.375v-3.125zm-16.965 21.449 6.6289 6.6289-2.2109 2.2109-6.6289-6.6289zm-23.66 9.8008h3.125v9.375h-3.125zm-20.535-9.8008 2.2109 2.2109-6.6289 6.6289-2.2109-2.2109zm-16.965-21.449h9.375v3.125h-9.375zm12.547-27.164 6.6289 6.6289-2.2109 2.2109-6.6289-6.6289zm30.734 30.734 9.3867 9.3867-2.2109 2.2109-9.3867-9.3867c-0.60937 0.29297-1.2852 0.46875-2.0078 0.46875-2.5859 0-4.6875-2.1016-4.6875-4.6875 0-2.0352 1.3086-3.7539 3.125-4.3984v-19.039h3.125v19.039c1.8164 0.64453 3.125 2.3633 3.125 4.3984 0 0.72266-0.17578 1.3984-0.46875 2.0078z"></path>
												</svg>