<svg xmlns:dc="http://purl.org/dc/elements/1.1/" xmlns:cc="http://creativecommons.org/ns#" xmlns:rdf="http://www.w3.org/1999/02/22-rdf-syntax-ns#" xmlns:svg="http://www.w3.org/2000/svg" xmlns="http://www.w3.org/2000/svg" xmlns:sodipodi="http://sodipodi.sourceforge.net/DTD/sodipodi-0.dtd" xmlns:inkscape="http://www.inkscape.org/namespaces/inkscape" version="1.1" x="0px" y="0px" viewBox="0 0 100 125" class="__web-inspector-hide-shortcut__">
    <g transform="translate(0,-952.36218)">
        <path d="m 50,964.36218 c -5.49915,0 -10,4.50085 -10,10 0,5.49916 4.50085,10 10,10 5.49914,0 10,-4.50084 10,-10 0,-5.49915 -4.50086,-10 -10,-10 z m 0,20 c -2.51422,0 -4.89843,0.36753 -7.09375,0.96875 -1.65646,-1.22524 -3.69683,-1.96875 -5.90625,-1.96875 -1.05574,0 -2.07388,0.16175 -3.03125,0.46875 0.007,-0.15459 0.0312,-0.31247 0.0312,-0.46875 0,-5.49916 -4.50084,-10 -10,-10 -5.49916,0 -10,4.50084 -10,10 0,5.49916 4.50084,9.99999 10,9.99999 1.05574,0 2.07388,-0.1617 3.03125,-0.4687 -0.007,0.1546 -0.0312,0.3124 -0.0312,0.4687 0,0.052 -8e-4,0.1046 0,0.1563 -0.97668,-0.099 -1.97757,-0.1563 -3,-0.1563 -5.0627,0 -9.66692,1.2941 -13.125,3.5313 C 7.41692,999.13058 5,1002.4584 5,1006.2685 l 0,11.0937 c 10e-5,1.0472 0.95283,1.9999 2,2 4.23077,0 6.82431,0 11,0 l 0,8 c 10e-5,1.0472 0.95283,1.9999 2,2 4.23077,0 6.82431,0 11,0 l 0,9 c 10e-5,1.0472 0.95283,1.9999 2,2 l 34,0 c 1.04717,-10e-5 1.9999,-0.9528 2,-2 l 0,-9 c 4.17569,0 6.76923,0 11,0 1.04717,-10e-5 1.9999,-0.9528 2,-2 l 0,-8 c 4.17569,0 6.76923,0 11,0 1.04717,-10e-5 1.9999,-0.9528 2,-2 l 0,-11.0937 c 0,-3.8101 -2.41692,-7.13792 -5.875,-9.37503 -3.45808,-2.2372 -8.0623,-3.5313 -13.125,-3.5313 -1.02243,0 -2.02332,0.057 -3,0.1563 8e-4,-0.052 0,-0.1044 0,-0.1563 0,-0.1563 -0.0241,-0.3141 -0.0312,-0.4687 0.95737,0.307 1.97551,0.4687 3.03125,0.4687 5.49916,0 10,-4.50084 10,-9.99999 0,-5.49916 -4.50084,-10 -10,-10 -5.49916,0 -10,4.50084 -10,10 0,0.15628 0.0241,0.31416 0.0312,0.46875 -0.95737,-0.307 -1.97551,-0.46875 -3.03125,-0.46875 -2.20942,0 -4.24979,0.74351 -5.90625,1.96875 C 54.89826,984.72951 52.51409,984.36218 50,984.36218 z m 0,-16 c 3.33738,0 6,2.66261 6,6 0,3.3374 -2.66262,6 -6,6 -3.33739,0 -6,-2.6626 -6,-6 0,-3.33739 2.66261,-6 6,-6 z m -26,9 c 3.3374,0 6,2.6626 6,6 0,3.3374 -2.6626,6 -6,6 -3.3374,0 -6,-2.6626 -6,-6 0,-3.3374 2.6626,-6 6,-6 z m 52,0 c 3.3374,0 6,2.6626 6,6 0,3.33739 -2.6626,6 -6,6 -3.3374,0 -6,-2.66261 -6,-6 0,-3.3374 2.6626,-6 6,-6 z m -39,10 c 3.33739,0 6,2.66261 6,5.99999 0,0.8692 -0.1739,1.69501 -0.5,2.4375 -0.5053,0.5754 -0.94811,1.1954 -1.3125,1.875 -1.07768,1.0464 -2.55071,1.6875 -4.1875,1.6875 -3.33738,0 -6,-2.6626 -6,-6 0,-3.33738 2.66262,-5.99999 6,-5.99999 z m 26,0 c 3.33738,0 6,2.66261 6,5.99999 0,3.3374 -2.66262,6 -6,6 -1.63679,0 -3.10982,-0.6411 -4.1875,-1.6875 -0.36439,-0.6796 -0.80719,-1.2996 -1.3125,-1.875 -0.005,-0.01 0.005,-0.026 0,-0.031 -0.31853,-0.7356 -0.5,-1.5475 -0.5,-2.4062 0,-3.33744 2.66261,-6.00005 6,-6.00005 z m -13,1 c 1.44821,0 2.83798,0.16489 4.15625,0.40625 -0.64036,1.23038 -1.04813,2.60354 -1.125,4.06254 -0.95737,-0.307 -1.97551,-0.4688 -3.03125,-0.4688 -1.05574,0 -2.07388,0.1618 -3.03125,0.4688 -0.0769,-1.45899 -0.48464,-2.83216 -1.125,-4.06254 1.31827,-0.24137 2.70814,-0.40625 4.15625,-0.40625 z m 0,7.99999 c 3.33738,0 6,2.6626 6,6.00003 0,3.3374 -2.66262,6 -6,6 -3.33739,0 -6,-2.6626 -6,-6 0,-3.33743 2.66261,-6.00003 6,-6.00003 z m -26,1 c 1.39041,0 2.73219,0.097 4,0.3125 1.62055,3.34983 5.04749,5.68753 9,5.68753 1.05574,0 2.07388,-0.1617 3.03125,-0.4687 0.011,0.209 0.0387,0.4194 0.0625,0.625 -1.00954,-0.1084 -2.03329,-0.1563 -3.09375,-0.1563 -5.0627,0 -9.66692,1.2941 -13.125,3.5313 -3.18277,2.059 -5.46632,5.0362 -5.8125,8.4687 l -9.0625,0 0,-9.0937 c 0,-2.0994 1.37507,-4.2614 4.0625,-6 2.68743,-1.73863 6.58221,-2.90633 10.9375,-2.90633 z m 52,0 c 4.35529,0 8.25007,1.1677 10.9375,2.90633 2.68743,1.7386 4.0625,3.9006 4.0625,6 l 0,9.0937 -9.0625,0 c -0.34618,-3.4325 -2.62973,-6.4097 -5.8125,-8.4687 -3.45808,-2.2372 -8.0623,-3.5313 -13.125,-3.5313 -1.06046,0 -2.08421,0.048 -3.09375,0.1563 0.0238,-0.2056 0.0515,-0.416 0.0625,-0.625 0.95737,0.307 1.97551,0.4687 3.03125,0.4687 3.95251,0 7.37945,-2.3377 9,-5.68753 1.26781,-0.2156 2.60959,-0.3125 4,-0.3125 z m -39,10.00003 c 1.62364,0 3.16744,0.1739 4.625,0.4688 1.79019,2.7321 4.8836,4.5312 8.375,4.5312 3.4914,0 6.58481,-1.7991 8.375,-4.5312 1.45756,-0.2949 3.00136,-0.4688 4.625,-0.4688 4.35529,0 8.25007,1.1677 10.9375,2.9063 2.68743,1.7385 4.0625,3.9006 4.0625,5.9999 l 0,9.0938 -9,0 0,-0.094 c 0,-3.81 -2.41698,-7.1371 -5.875,-9.375 -3.45802,-2.238 -8.06209,-3.5313 -13.125,-3.5313 -5.06291,0 -9.66698,1.2933 -13.125,3.5312 -3.45802,2.238 -5.875,5.565 -5.875,9.375 l 0,0.094 -9,0 0,-9.0937 c 0,-2.0994 1.37507,-4.2614 4.0625,-6 2.68743,-1.7385 6.58221,-2.9062 10.9375,-2.9062 z m 13,9 c 4.35508,0 8.25002,1.167 10.9375,2.9062 2.68748,1.7393 4.0625,3.9008 4.0625,6 l 0,11.0938 -30,0 0,-11.0938 c 0,-2.0992 1.37502,-4.2607 4.0625,-6 2.68748,-1.7392 6.58242,-2.9062 10.9375,-2.9062 z" style="
                text-indent: 0;
                text-transform: none;
                direction: ltr;
                block-progression: tb;
                baseline-shift: baseline;
                color: #000000;
                enable-background: accumulate;
            " fill="var(--first-color)" fill-opacity="1" stroke="none" marker="none" visibility="visible" display="inline" overflow="visible"></path>
    </g>
</svg>